<?xml version="1.0" standalone="no"?>
<!DOCTYPE svg PUBLIC "-//W3C//DTD SVG 1.1//EN" "http://www.w3.org/Graphics/SVG/1.1/DTD/svg11.dtd" >
<svg xmlns="http://www.w3.org/2000/svg">
<metadata>
Created by FontForge 20120731 at Mon May 16 15:15:11 2016
 By admin
</metadata>
<defs>
<font id="iconfont" horiz-adv-x="1024" >
  <font-face 
    font-family="iconfont"
    font-weight="500"
    font-stretch="normal"
    units-per-em="1024"
    panose-1="2 0 6 3 0 0 0 0 0 0"
    ascent="896"
    descent="-128"
    x-height="792"
    bbox="-1 -128.347 1024 883"
    underline-thickness="50"
    underline-position="-100"
    unicode-range="U+0078-E621"
  />
<missing-glyph horiz-adv-x="374" 
d="M34 0v682h272v-682h-272zM68 34h204v614h-204v-614z" />
    <glyph glyph-name=".notdef" horiz-adv-x="374" 
d="M34 0v682h272v-682h-272zM68 34h204v614h-204v-614z" />
    <glyph glyph-name=".null" horiz-adv-x="0" 
 />
    <glyph glyph-name="nonmarkingreturn" horiz-adv-x="341" 
 />
    <glyph glyph-name="x" unicode="x" horiz-adv-x="1001" 
d="M281 543q-27 -1 -53 -1h-83q-18 0 -36.5 -6t-32.5 -18.5t-23 -32t-9 -45.5v-76h912v41q0 16 -0.5 30t-0.5 18q0 13 -5 29t-17 29.5t-31.5 22.5t-49.5 9h-133v-97h-438v97zM955 310v-52q0 -23 0.5 -52t0.5 -58t-10.5 -47.5t-26 -30t-33 -16t-31.5 -4.5q-14 -1 -29.5 -0.5
t-29.5 0.5h-32l-45 128h-439l-44 -128h-29h-34q-20 0 -45 1q-25 0 -41 9.5t-25.5 23t-13.5 29.5t-4 30v167h911zM163 247q-12 0 -21 -8.5t-9 -21.5t9 -21.5t21 -8.5q13 0 22 8.5t9 21.5t-9 21.5t-22 8.5zM316 123q-8 -26 -14 -48q-5 -19 -10.5 -37t-7.5 -25t-3 -15t1 -14.5
t9.5 -10.5t21.5 -4h37h67h81h80h64h36q23 0 34 12t2 38q-5 13 -9.5 30.5t-9.5 34.5q-5 19 -11 39h-368zM336 498v228q0 11 2.5 23t10 21.5t20.5 15.5t34 6h188q31 0 51.5 -14.5t20.5 -52.5v-227h-327z" />
    <glyph glyph-name="uniE600" unicode="&#xe600;" horiz-adv-x="1038" 
d="M726 546h-7q-127 3 -224 -67q-92 -65 -118 -168q-15 -60 0 -121v-3q1 -2 1 -4v-2q-47 2 -50 3q-46 3 -93 19q-3 1 -8 -2q-12 -8 -43.5 -29.5t-47.5 -32.5q-7 -4 -16 -7q-14 -3 -15 11q-1 6 1 13q14 52 25 94q2 6 -3 9q-72 55 -104 132q-28 66 -20 135q13 125 120 209
q73 58 170 74q138 24 257 -37q106 -54 154 -155q15 -32 21 -68v-3zM226 646q-18 1 -31.5 -12t-13.5 -31q-1 -18 12 -31.5t31 -14.5q18 0 31.5 12.5t13.5 31.5q1 18 -12 31.5t-31 13.5zM547 603q0 18 -13 31t-32 12q-18 0 -30.5 -13.5t-12 -32t13.5 -31t31 -12.5
q19 1 31.5 14t11.5 32zM707 523q128 -2 218 -77q78 -64 93 -157q15 -90 -34 -170q-25 -41 -65 -72q-5 -4 -3 -9q11 -40 17 -66q2 -6 0 -14q-1 -8 -9 -5q-4 1 -9 4q-39 27 -64 44q-4 3 -9 1q-76 -32 -160 -26q-108 8 -188 72q-77 61 -96 150q-23 106 41.5 195.5t183.5 119.5
q38 9 84 10zM636 357.5q0 18.5 -13 31.5t-31 13t-31.5 -13t-13.5 -31.5t13 -31.5t31.5 -13t31.5 13t13 31.5zM819 312.5q18 0.5 31 13.5t13 31.5t-13 31.5t-31 13q-19 0 -32 -13.5t-12 -31.5q0 -18 13 -31.5t31 -13z" />
    <glyph glyph-name="uniE601" unicode="&#xe601;" 
d="M551 880q13 -3 39.5 -8t47 -9t39.5 -10q124 -35 212 -121q83 -82 108.5 -184t-10.5 -200.5t-127 -172.5q-131 -105 -303 -117q-44 -3 -70 -34q-79 -95 -165 -138l-9 -4l-10 -6q-3 -1 -8.5 -2t-9.5 1.5t-7 8.5q-3 8 -3.5 12t4 7.5t8 5t10 4t9.5 3.5q85 46 171 150
q19 23 49 24q208 9 338 136q113 110 109.5 250t-122.5 244q-158 139 -392 122q-161 -11 -281 -106q-94 -74 -126.5 -175t3.5 -201t134 -170q22 -16 70 -39.5t57 -29.5q4 -2 6.5 -5.5t5.5 -9.5t5 -8q-3 -1 -9.5 -4t-11 -4t-7.5 0q-243 91 -296 310q0 1 -7 31v71q4 12 11 38.5
t14 46.5t15 37q88 173 309 234q15 5 32 8.5t39.5 7t33.5 6.5h95z" />
    <glyph glyph-name="uniE602" unicode="&#xe602;" 
d="M968 572v-1v1l-80 -165l85 9q9 -107 -30 -209q-34 -89 -100 -157q-64 -66 -148 -103.5t-175 -39.5q-95 -4 -184.5 30.5t-157.5 100.5q-66 64 -103 148t-40 175q-3 95 31.5 184t100.5 158q63 65 147 102.5t176 40.5q95 3 184 -32q81 -31 145 -88l22 25q-68 61 -155 95
q-96 37 -197 33q-98 -3 -188 -43t-158 -110q-71 -73 -108 -168.5t-33 -197.5q3 -98 43 -188t110 -158q73 -70 168.5 -107t197.5 -34q98 3 188 43t158 111q70 73 107 168q36 92 34.5 189t-40.5 188zM968 572zM498 154q17 194 154 372v66h-321v-74h224q-127 -172 -152 -364h95
zM498 154z" />
    <glyph glyph-name="uniE603" unicode="&#xe603;" 
d="M882 -37q0 -11 -7.5 -20t-17.5 -9h-779q-9 0 -17 9t-8 20v650q0 12 8 21t17 9h201q10 0 18 7t8 22q0 16 -8 23t-18 7h-226q-19 0 -34.5 -18.5t-15.5 -40.5v-715q0 -22 13.5 -37.5t33.5 -15.5h835q19 0 32.5 15.5t13.5 37.5v212q0 31 -23 31q-26 0 -26 -30v-178zM795 880
l-33 -39l146 -198h-151q-135 -9 -250.5 -79t-188 -188t-81.5 -259h47q9 127 75 231t170.5 165.5t227.5 70.5h151l-146 -168l33 -38l213 235zM795 880z" />
    <glyph glyph-name="uniE604" unicode="&#xe604;" horiz-adv-x="1038" 
d="M838 78q-12 0 -17 10q-5 7 -2.5 15t9.5 13q70 41 112 111q42 73 42 157t-42 156q-40 70 -110 112q-7 4 -9 12t2 15.5t12.5 9.5t15.5 -2q78 -47 124 -126q47 -82 47 -177t-48 -177q-46 -80 -126 -126q-5 -3 -10 -3v0zM732 209q-12 0 -18 10q-4 7 -2 15t9 12q37 21 58 58
q22 37 22 80t-22 80q-21 36 -56 57q-8 5 -10 13t2.5 15t12.5 9t15 -2q45 -27 71 -72q27 -46 27 -100t-27 -101q-27 -45 -72 -72q-5 -2 -10 -2v0zM575 -66q-38 0 -78 29l-39 27q-7 4 -8.5 12.5t3.5 15t13 8t15 -2.5l39 -28q12 -8 31.5 -16t32.5 -3q4 1 6.5 3t5 11.5t2.5 27.5
v731q-1 17 -4 26t-5.5 11.5t-8.5 5.5q-12 5 -30 -2.5t-29 -16.5l-1 -1l-240 -180q-24 -19 -58 -29.5t-50 -11.5t-28 0q-38 -1 -67 -26.5t-34 -63.5l-1 -14v-126l1 -14q5 -39 34 -64.5t67 -25.5h3q31 0 64.5 -10.5t45.5 -17.5t20 -12q4 -3 11 -8t25 -21t34 -33t34.5 -44
t31.5 -54q4 -8 1 -15.5t-10.5 -11t-15.5 -1t-11 10.5q-18 39 -50 75.5t-47.5 49t-24.5 18.5q-7 5 -17.5 10.5t-39 14.5t-53.5 9q-54 0 -94.5 35.5t-47.5 89.5l-2 17v130l2 16q7 54 47.5 90t94.5 36h1q7 0 19.5 0.5t41 8.5t48.5 24h1l240 180q14 11 31 19q40 19 70 5
q19 -8 28 -23q12 -18 14 -54v-1v-733q-1 -20 -3 -33t-12 -26.5t-27 -19.5q-10 -4 -22 -4v0zM575 -66z" />
    <glyph glyph-name="uniE605" unicode="&#xe605;" horiz-adv-x="1039" 
d="M1023 175l-511 510l-511 -510l92 -92l419 418l419 -418zM1023 175z" />
    <glyph glyph-name="uniE606" unicode="&#xe606;" horiz-adv-x="1039" 
d="M1 593l511 -510l511 510l-92 92l-419 -418l-419 418zM1 593z" />
    <glyph glyph-name="uniE607" unicode="&#xe607;" 
d="M848 400h-624v168q0 70 41.5 131.5t108 97t138.5 35.5q71 0 132.5 -41.5t96.5 -108t35 -138.5q0 -10 7 -17t17 -7t17 7t7 17q0 85 -41.5 162.5t-114 125.5t-156.5 48q-85 0 -162.5 -42t-125.5 -114.5t-48 -155.5v-168q-40 0 -68 -28.5t-28 -67.5v-336q0 -40 28 -68
t68 -28h672q40 0 68 28t28 68v336q0 39 -28 67.5t-68 28.5v0zM896 -32q0 -20 -14 -34t-34 -14h-672q-20 0 -34 14t-14 34v336q0 19 14 33.5t34 14.5h672q20 0 34 -14.5t14 -33.5v-336v0zM512 256q-20 0 -34 -14t-14 -34q0 -28 24 -42v-78q0 -15 7.5 -43.5t16.5 -28.5
t16.5 28.5t7.5 43.5v78q24 14 24 42q0 20 -14 34t-34 14v0zM512 256z" />
    <glyph glyph-name="uniE608" unicode="&#xe608;" horiz-adv-x="1026" 
d="M982 549l-169 -170q-28 -28 -68 -28t-68 28l-170 170q-28 28 -28 68t28 68l170 169q28 29 68 29t68 -29l169 -169q29 -28 29 -68t-29 -68zM932 668l-136 136q-21 21 -51 21t-51 -21l-136 -136q-21 -21 -21 -51t21 -51l136 -136q21 -21 51 -21t51 21l136 136q21 21 21 51
t-21 51zM337 -127h-240q-40 0 -68 28t-28 68v240q0 40 28 68t68 28h240q40 0 68 -28t28 -68v-240q0 -40 -28 -68t-68 -28zM337 401h-240q-40 0 -68 28t-28 68v240q0 40 28 68t68 28h240q40 0 68 -28t28 -68v-240q0 -40 -28 -68t-68 -28zM625 305h240q40 0 68 -28t28 -68
v-240q0 -40 -28 -68t-68 -28h-240q-40 0 -68 28t-28 68v240q0 40 28 68t68 28zM625 305z" />
    <glyph glyph-name="uniE609" unicode="&#xe609;" horiz-adv-x="1039" 
d="M905 766h-787q-48 0 -82.5 -34t-34.5 -83v-530q0 -49 34.5 -83t82.5 -34h787q49 0 83.5 34t34.5 83v530q0 49 -34.5 83t-83.5 34zM979 119q0 -30 -21.5 -51.5t-52.5 -21.5h-787q-30 0 -51.5 21.5t-21.5 51.5v530q0 30 21.5 51.5t51.5 21.5h787q31 0 52.5 -21.5
t21.5 -51.5v-530zM637 480h163q10 0 16.5 6.5t6.5 15.5t-6.5 15.5t-16.5 6.5h-163q-9 0 -15.5 -6.5t-6.5 -15.5t6.5 -15.5t15.5 -6.5zM637 349h163q10 0 16.5 6.5t6.5 15.5t-6.5 15.5t-16.5 6.5h-163q-9 0 -15.5 -6.5t-6.5 -15.5t6.5 -15.5t15.5 -6.5zM879 262h-242
q-9 0 -15.5 -6.5t-6.5 -15.5t6.5 -15.5t15.5 -6.5h242q9 0 15.5 6.5t6.5 15.5t-6.5 15.5t-15.5 6.5zM485 303q-40 43 -96 59l-3 1l2 2q30 16 47.5 44.5t17.5 62.5q0 50 -35.5 86t-86 36t-86 -36t-35.5 -86q0 -34 17 -62.5t47 -44.5l3 -2l-3 -1q-56 -16 -96 -59
q-41 -43 -52 -102q-2 -9 3.5 -16.5t14.5 -9.5h4q8 0 14 5t8 13q11 58 56.5 96t105 38t105 -38t56.5 -97q2 -7 8 -12.5t14 -5.5q2 0 4 1q9 1 14.5 9t3.5 17q-11 58 -52 102zM331 549q32 0 55 -22.5t23 -54.5t-23 -55t-55 -23t-54.5 23t-22.5 55t22.5 54.5t54.5 22.5zM331 549
z" />
    <glyph glyph-name="uniE60A" unicode="&#xe60a;" 
d="M534 -126h-12q-289 1 -413 36q-17 5 -17 22q0 133 36 280q18 74 37 121l43 -16q-7 -19 -18.5 -54t-30 -131t-20.5 -182q126 -29 384 -29h11q250 0 351 28q-1 87 -20 183t-30.5 131t-18.5 54l43 16q19 -47 37 -121q36 -147 36 -280q0 -16 -15 -21q-97 -37 -383 -37z
M534 -126zM885 310h-746q-16 0 -22 14.5t5 25.5q102 99 238 174v217q0 57 41 98t99 41t99 -41t41 -98v-216q155 -72 262 -175q11 -11 5 -25.5t-22 -14.5zM198 358h627q-46 38 -103 72t-79.5 44.5t-34.5 15.5q-14 5 -14 20v231q0 39 -27.5 66t-66 27t-65.5 -27t-27 -66v-231
q0 -14 -13 -20q-11 -5 -30 -15.5t-70.5 -44.5t-96.5 -72zM198 358z" />
    <glyph glyph-name="uniE60B" unicode="&#xe60b;" horiz-adv-x="1040" 
d="M679 353q-2 -10 -10 -15.5t-18 -3.5t-16 10t-4 18q3 13 3 22q0 51 -36 86.5t-86 35.5t-86 -35.5t-36 -86.5t36 -86.5t86 -35.5q9 0 22 2q10 2 18 -4t10 -16t-4 -18t-16 -10q-16 -3 -30 -3q-70 0 -120 50t-50 121t50 121t120 50t120 -50t50 -121q0 -14 -3 -31v0zM1014 288
q-3 -16 -18 -20q-83 -19 -125 -92.5t-18 -155.5q5 -15 -7 -25q-74 -65 -166 -97q-15 -5 -26 7q-58 62 -142 62t-142 -62q-7 -8 -18 -8q-4 0 -8 1q-92 33 -166 97q-12 10 -7 25q24 82 -18 155.5t-125 92.5q-15 4 -18 20q-10 49 -10 96t10 96q3 16 18 20q83 19 125 92.5
t18 154.5q-5 16 7 26q74 65 166 97q15 5 26 -7q58 -62 142 -62t142 62q11 12 26 7q92 -32 166 -97q12 -10 7 -26q-24 -81 18 -154.5t125 -92.5q15 -4 18 -20q9 -49 9 -96t-9 -96v0zM969 456q-92 28 -140 111.5t-26 178.5q-57 46 -125 72q-70 -66 -166 -66t-166 66
q-68 -26 -125 -72q22 -95 -26 -178.5t-140 -111.5q-6 -37 -6 -72t6 -72q92 -28 140 -112t26 -178q57 -46 125 -72q70 66 166 66t166 -66q68 26 125 72q-22 95 25.5 178.5t140.5 111.5q6 37 6 72t-6 72v0zM969 456z" />
    <glyph glyph-name="uniE60C" unicode="&#xe60c;" horiz-adv-x="1038" 
d="M1022 498l-343 65l-167 306l-167 -306l-343 -65l240 -253l-45 -346l315 150l315 -150l-45 346zM534 96l-22 10l-22 -10l-230 -109l33 251l3 25l-17 18l-174 184l250 47l24 4l11 22l122 223l121 -223l12 -22l24 -4l250 -47l-174 -184l-17 -18l3 -25l33 -251zM534 96z" />
    <glyph glyph-name="uniE60D" unicode="&#xe60d;" 
d="M746 191q183 -190 233 -242l9 -9l11 -11q19 -22 0 -42q-21 -23 -44 -2q-38 35 -68 66q-22 23 -186 197q-188 -140 -395 -81q-147 42 -233 170q-87 132 -65 284t142 257q118 103 279 101.5t281 -107.5q56 -49 91 -118t45.5 -146t-14.5 -161t-86 -156zM785 464
q0 96 -48 177t-130 128.5t-179.5 47.5t-180.5 -47t-131 -128t-48 -176.5t47.5 -176.5t129.5 -128.5t180 -49.5q96 -1 179 46.5t131.5 129t49.5 177.5z" />
    <glyph glyph-name="uniE60E" unicode="&#xe60e;" horiz-adv-x="1038" 
d="M726 546h-7q-127 3 -224 -67q-92 -65 -118 -168q-15 -60 0 -121v-3q1 -2 1 -4v-2q-47 2 -50 3q-46 3 -93 19q-3 1 -8 -2q-12 -8 -43.5 -29.5t-47.5 -32.5q-7 -4 -16 -7q-14 -3 -15 11q-1 6 1 13q14 52 25 94q2 6 -3 9q-72 55 -104 132q-28 66 -20 135q13 125 120 209
q73 58 170 74q138 24 257 -37q106 -54 154 -155q15 -32 21 -68v-3zM226 646q-18 1 -31.5 -12t-13.5 -31q-1 -18 12 -31.5t31 -14.5q18 0 31.5 12.5t13.5 31.5q1 18 -12 31.5t-31 13.5zM547 603q0 18 -13 31t-32 12q-18 0 -30.5 -13.5t-12 -32t13.5 -31t31 -12.5
q19 1 31.5 14t11.5 32zM707 523q128 -2 218 -77q78 -64 93 -157q15 -90 -34 -170q-25 -41 -65 -72q-5 -4 -3 -9q11 -40 17 -66q2 -6 0 -14q-1 -8 -9 -5q-4 1 -9 4q-39 27 -64 44q-4 3 -9 1q-76 -32 -160 -26q-108 8 -188 72q-77 61 -96 150q-23 106 41.5 195.5t183.5 119.5
q38 9 84 10zM636 357.5q0 18.5 -13 31.5t-31 13t-31.5 -13t-13.5 -31.5t13 -31.5t31.5 -13t31.5 13t13 31.5zM819 312.5q18 0.5 31 13.5t13 31.5t-13 31.5t-31 13q-19 0 -32 -13.5t-12 -31.5q0 -18 13 -31.5t31 -13z" />
    <glyph glyph-name="uniE60F" unicode="&#xe60f;" horiz-adv-x="1039" 
d="M1 465q15 38 31 48.5t58 10.5h176q2 22 2 23v73v72q0 43 24.5 68t68.5 25h570q43 0 67.5 -24.5t24.5 -67.5v-460q0 -44 -24.5 -67.5t-67.5 -24.5q-9 0 -29 2t-34 1t-25 -6t-20 -16t-20 -27.5t-17 -23.5l-8 -10q-6 4 -19 12.5t-22 15.5t-17 14q-52 48 -119 39
q-2 -1 -35 -1q-1 -22 -1 -23q-1 -36 -20 -55.5t-55 -19.5q-117 -2 -192 0q-32 1 -55 -19q-4 -3 -57 -41q-34 43 -39 48q-8 9 -22 11h-35q-41 0 -58.5 12.5t-30.5 49.5v361zM772 105q38 50 44 55q10 12 25 13q8 0 87 1q32 0 47.5 14.5t15.5 46.5q1 215 0 456q0 62 -63 62
h-566q-62 0 -62 -63v-454q0 -62 62 -62q257 -1 295 -1q18 0 37 -12q9 -6 78 -56zM268 491h-202q-14 0 -23 -10t-9 -25v-344q0 -17 10 -26.5t27 -10.5q37 -2 58 0q28 2 41 -20q1 -2 22 -28q39 29 42 31q21 18 53 17.5t195 -0.5q66 0 47 66h-168q-44 1 -68.5 25.5t-24.5 69.5
v108v147zM568 542h-36q-8 47 20 82t80 43q59 9 99 -26.5t33 -90.5q-2 -17 -16 -42q-7 -11 -24 -28q-21 -19 -31.5 -30.5t-19 -32.5t-5.5 -44h-40q-6 56 27 96q9 11 27.5 30.5t23.5 24.5q25 28 15 61t-46 43q-41 11 -69.5 -6.5t-35.5 -59.5q0 -1 -2 -20zM625 279v47h41
q11 -32 3 -41.5t-44 -5.5z" />
    <glyph glyph-name="uniE610" unicode="&#xe610;" 
d="M729 833q29 0 49.5 -20.5t20.5 -49.5v-342l7 17l-397 -402l16 6h-280q-29 0 -49.5 20.5t-20.5 49.5v744l-23 -23h677v0zM29 880v-24v-744q0 -48 34 -82t82 -34h280h10l7 7l397 402l7 7v9v342q0 48 -34.5 82.5t-82.5 34.5h-677h-23v0zM782 291l-16 -16l16 -16l94 -93
l16 -17l17 17l70 69l16 17l-16 16l-94 93l-16 17l-17 -17l-70 -70v0zM852 328l94 -93v33l-70 -70h33l-94 93v-32l70 69h-33v0zM526 36l-5 -5l-2 -7l-23 -116l-7 -35l34 7l117 23l7 2l5 5l257 256l16 16l-16 16l-94 93l-16 17l-17 -17l-256 -255v0zM782 259l94 -93v32
l-257 -255l12 6l-117 -23l28 -28l23 117l-6 -12l256 256h-33v0zM433 282q14 0 23 -9t9 -22v-9q0 -13 -9 -22.5t-23 -9.5q-13 0 -22 9.5t-9 22.5v9q0 13 9 22t22 9v0zM285 536q1 -2 2 -5.5t8 -10t17.5 -6.5t17 5.5t8.5 11.5l1 5q-3 107 99 102q67 -8 69 -76q-4 -31 -50 -79
q-61 -61 -61 -109v-33q1 -2 2 -5.5t7.5 -8.5t16.5 -5t16 4.5t8 9.5l1 5v23q0 40 58 96q61 56 61 102q-5 126 -133 131q-148 3 -148 -157v0zM285 536z" />
    <glyph glyph-name="uniE611" unicode="&#xe611;" horiz-adv-x="1040" 
d="M203 -44q-7 0 -13 3q-15 8 -14 26l5 106h-57q-51 0 -87.5 37.5t-36.5 90.5v465q0 53 36.5 90.5t87.5 37.5h776q51 0 87.5 -37.5t36.5 -90.5v-463q0 -59 -42 -97q-37 -33 -88 -33h-501l-174 -130q-7 -5 -16 -5zM124 758q-29 0 -49 -22t-20 -52v-465q0 -30 20 -51.5
t49 -21.5h86q11 0 19 -8.5t8 -20.5l-4 -78l135 101q7 6 16 6h510q28 0 51.5 19t23.5 56v463q0 30 -20 52t-49 22h-776zM124 758zM357 450q0 -20 -13.5 -34.5t-33 -14.5t-33 14.5t-13.5 34.5t13.5 34.5t33 14.5t33 -14.5t13.5 -34.5zM559 450q0 -20 -14 -34.5t-33 -14.5
t-33 14.5t-14 34.5t14 34.5t33 14.5t33 -14.5t14 -34.5zM760 450q0 -20 -13.5 -34.5t-33 -14.5t-33 14.5t-13.5 34.5t13.5 34.5t33 14.5t33 -14.5t13.5 -34.5z" />
    <glyph glyph-name="uniE612" unicode="&#xe612;" horiz-adv-x="1038" 
d="M1022 524l-508 243l-512 -243l512 -243l412 197v-289h29v302l67 33v0zM514 318l-442 206l442 205l427 -205l-427 -206v0zM797 120q-115 -68 -208 -80q-88 -11 -181 8q-76 16 -178 73v198h-29v-225l12 -8q9 -6 25.5 -14.5t64.5 -27.5t97 -29q62 -14 123 -14q35 0 69 5
q118 15 222 80l12 8v225h-29v-199v0zM797 120z" />
    <glyph glyph-name="uniE613" unicode="&#xe613;" horiz-adv-x="1025" 
d="M193 -128q32 269 37 303q8 57 -28 94q-29 30 -58.5 62.5t-69.5 79t-56 64.5q-1 1 -17 20q171 35 185 38q120 24 134 27q18 4 27 21q24 44 144 273q0 1 14 26q74 -139 80 -150q57 -109 73 -142q13 -25 41 -31q47 -9 298 -60l12 -3q-75 -85 -80 -90q-123 -138 -139 -158
q-14 -16 -12 -37q6 -52 37 -322v-15q-153 75 -167 82q-104 51 -118 58q-24 13 -49 1q-47 -24 -268 -133z" />
    <glyph glyph-name="uniE614" unicode="&#xe614;" 
d="M822 211q-7 7 -17 7t-17 -7t-7 -17.5t7 -17.5q55 -55 84.5 -127t29.5 -150q0 -10 7 -17.5t17 -7.5t17.5 7.5t7.5 17.5q0 88 -33.5 168.5t-95.5 143.5zM512 880q-121 0 -206.5 -86.5t-85.5 -208.5q0 -85 44.5 -156t118.5 -108q-104 -32 -181 -110q-62 -63 -95.5 -143.5
t-33.5 -168.5q0 -10 7.5 -17.5t17.5 -7.5t17 7.5t7 17.5q0 78 29.5 150t84.5 127q110 111 265 115h11q121 0 206.5 86t85.5 208t-85.5 208.5t-206.5 86.5zM516 340h-4h-11q-97 5 -165 76t-68 169q0 102 71.5 173.5t172.5 71.5t172.5 -71.5t71.5 -173.5q0 -100 -70.5 -172
t-169.5 -73zM516 340z" />
    <glyph glyph-name="uniE615" unicode="&#xe615;" horiz-adv-x="1040" 
d="M512 768h401q59 0 85 -26t26 -84v-548q0 -57 -26.5 -83.5t-82.5 -26.5h-806q-56 0 -82.5 26.5t-26.5 83.5v551q0 55 26 81t82 26h404zM49 48q6 -1 17 -4.5t19.5 -5.5t16.5 -2q338 -1 820 0q2 0 40 6l-339 340q-80 -67 -87 -74q-24 -21 -48 0q-9 8 -98 83zM50 723
l462 -389l455 384q-1 4 -3 8q-36 6 -38 6q-422 1 -829 0q-2 0 -47 -9zM987 688l-324 -272l1 -1l1 -1l1 -1l1 -1l1 -1l1 -2l1 -1l1 -1l1 -1l1 -1l1 -1l1 -1l1 -1l1 -1l1 -1l1 -1l1 -1l1 -1l1 -1l2 -1l1 -1l1 -1l1 -1l1 -1l1 -1l1 -1l1 -1l1 -1l1 -1l1 -1l1 -1l1 -1l1 -1l1 -1
l1 -1l1 -1l1 -1l1 -1l1 -1l1 -1l1 -1l1 -1l1 -1l1 -1l1 -1l1 -1l1 -1l1 -1l1 -1l1 -1l1 -2l1 -1l1 -1l1 -1l1 -1l1 -1l1 -1l1 -1l1 -1l1 -1l1 -1l1 -1l1 -1l1 -1l2 -1l1 -1l1 -1l1 -1l1 -1l1 -1l1 -1l1 -1l1 -1l1 -1l1 -1l1 -1l1 -1l1 -1l1 -1l1 -1l1 -1l1 -1l1 -1l1 -1
l1 -1l1 -1l1 -1l1 -1l1 -1l1 -1l1 -1l1 -1l1 -1l1 -1l1 -1l1 -1l1 -1l1 -1l1 -2l1 -1l1 -1l1 -1l1 -1l1 -1l1 -1l1 -1l1 -1l1 -1l1 -1l1 -1l1 -1l1 -1l1 -1l1 -1l2 -1l1 -1l1 -1l1 -1l1 -1l1 -1l1 -1l1 -1l1 -1l1 -1l1 -1l1 -1l1 -1l1 -1l1 -1l1 -1l1 -1l1 -1l1 -1l1 -1
l1 -1l1 -1l1 -1l1 -1l1 -1l1 -1l1 -1l1 -1l1 -1l1 -1l1 -1l1 -1l1 -1l1 -1l1 -1l1 -1l1 -1l1 -1l1 -1l1 -1l1 -2l1 -1l1 -1l1 -1l1 -1l1 -1l1 -1l1 -1l1 -1l1 -1l1 -1l1 -1l1 -1l1 -1l1 -1l1 -1l1 -1l1 -1l1 -1l2 -1l1 -1l1 -1l1 -1l1 -1l1 -1l1 -1l1 -1l1 -1l1 -1l1 -1
l1 -1l1 -1l1 -1l1 -1l1 -1l1 -1l1 -1l1 -1l1 -1l1 -1l1 -1l1 -1l1 -1l1 -1l1 -1l1 -1l1 -1l1 -1l1 -1l1 -1l1 -1l1 -1l1 -1l1 -1l1 -1l1 -1l1 -1l1 -1l1 -1l1 -1l1 -1l1 -1l1 -1l1 -1l1 -1l1 -1l1 -1l1 -1l1 -1l1 -1l1 -1l1 -1l1 -1l1 -1l1 -1l1 -1l1 -1l1 -2l1 -1l1 -1
l1 -1l1 -1l1 -1l1 -1l1 -1l1 -1l1 -1l1 -1l1 -1l1 -1l1 -1l1 -1l1 -1l1 -1l1 -1l1 -1l1 -1l1 -1l1 -1l1 -1l1 -1l1 -1l1 -1l1 -1l1 -1l1 -1l1 -1l1 -1l1 -1l1 -1l1 -1l1 -1l1 -1l1 -1l1 -1l2 -1l1 -1l1 -1l1 -1l1 -1l1 -1l1 -1l1 -1l1 -1l1 -1l1 -1l1 -1l1 -1l1 -1l1 -1
l1 -1l1 -1l1 -1l1 -1l1 -1l1 -1l1 -1l1 -1l1 -1l1 -1l1 -1l1 -1l1 -1l1 -1l1 -1l1 -1l1 -1l1 -1l1 -1l1 -1l1 -1l1 -1l1 -1l1 -1l1 -1l1 -1l1 -1l1 -1l1 -1l1 -1l1 -1l1 -1l1 -1l1 -1l1 -1v596zM38 688v-587l1 1l1 1l1 1l1 1l1 1l1 1l1 1l1 1l1 1l1 1l1 1l1 1l1 1l1 1l1 1
l1 1l1 1l1 1l1 1l1 1l1 1l1 1l1 1l1 1l1 1l1 1l1 1l1 1l1 1l1 1l1 1l1 1v1l1 1l1 1l1 1l1 1l1 1l1 1l1 1l1 1l1 1l1 1l1 1l1 1l1 1l1 1l1 1l1 1l1 1l1 1l1 1l1 1l1 1l1 1l1 1l1 1l1 1l1 1l1 1l1 1l1 1l1 1l1 1l1 1l1 1l1 1l1 1l1 1l1 1l1 1h1l1 1l1 1l1 1l1 1l1 1l1 1l1 1
l1 1l1 1l1 1l1 1l1 1l1 1l1 1l1 1l1 1l1 1l1 1l1 1l1 1l1 1l1 1l1 1l1 1l1 1l1 1l1 1l1 1l1 1l1 1l1 1l1 1l1 1l1 1l1 1l1 1l1 1l1 1l1 1l1 1l1 1l1 1l1 1l1 1l1 1l1 1l1 1l1 1l1 1l1 1l1 1l1 1l1 1l1 1l1 1l1 1l1 1l1 1l1 1l1 1l1 1l1 1l1 1l1 1l1 1l1 1l1 1l1 1l1 1l1 1
l1 1l1 1l1 1v1l1 1l1 1l1 1l1 1l1 1l1 1l1 1l1 1l1 1l1 1l1 1l1 1l1 1l1 1l1 1l1 1l1 1l1 1l1 1l1 1l1 1l1 1l1 1l1 1l1 1l1 1l1 1l1 1l1 1l1 1l1 1l1 1l1 1l1 1l1 1l1 1l1 1l1 1l1 1l1 1l1 1l1 1l1 1l1 1l1 1l1 1l1 1l1 1l1 1l1 1l1 1l1 1l1 1l1 1l1 1l1 1l1 1l1 1l1 1l1 1
l1 1l1 1l1 1l1 1l1 1l1 1l1 1l1 1l1 1l1 1l1 1l1 1l1 1l1 1l1 1l1 1l1 1l1 1l1 1l1 1l1 1l1 1l1 1l1 1l1 1l1 1l1 1l1 1l1 1l1 1l1 1l1 1l1 1l1 1l1 1l1 1l1 1l1 1l1 1l1 1l1 1l1 1l1 1l1 1h1l1 1l1 1l1 1l1 1l1 1l1 1l1 1l1 1l1 1l1 1l1 1l1 1l1 1l1 1l1 1l1 1l1 1l1 1l1 1
l1 1l1 1l1 1l1 1l1 1l1 1l1 1l1 1l1 1l1 1l1 1l1 1l1 1l1 1l1 1l1 1l1 1l1 1l1 1l1 1l1 1l1 1l1 1l1 1l1 1l1 1l1 1l1 1l1 1l1 1l1 1l1 1l1 1l1 1l1 1l1 1l1 1l1 1l1 1l1 1l1 1l1 1l1 1l1 1l1 1l1 1l1 1l1 1l1 1l1 2l-1 1h-1l-1 1l-1 1l-1 1l-1 1h-1v1l-1 1l-1 1l-1 1h-1
l-1 1l-1 1l-1 1l-1 1l-1 1h-1l-1 1l-1 1l-1 1l-1 1h-1l-1 1l-1 1l-1 1l-1 1l-1 1h-1l-1 1l-1 1l-1 1l-1 1h-1l-1 1l-1 1l-1 1l-1 1l-1 1h-1l-1 1v1l-1 1l-1 1h-1l-1 1l-1 1l-1 1l-1 1l-1 1h-1l-1 1l-1 1l-1 1l-1 1h-1l-1 1l-1 1l-1 1l-1 1l-1 1h-1l-1 1l-1 1l-1 1l-1 1h-1
l-1 1l-1 1l-1 1l-1 1l-1 1h-1l-1 1l-1 1l-1 1l-1 1h-1v1l-1 1l-1 1l-1 1l-1 1h-1l-1 1l-1 1l-1 1l-1 1h-1l-1 1l-1 1l-1 1l-1 1l-1 1h-1l-1 1l-1 1l-1 1l-1 1l-1 1h-1l-1 1l-1 1l-1 1l-1 1h-1l-1 1l-1 1l-1 1l-1 1l-1 1h-1l-1 1l-1 1l-1 1l-1 1l-1 1h-1l-1 1l-1 1l-1 1v1h-1
l-1 1l-1 1l-1 1l-1 1l-1 1h-1l-1 1l-1 1l-1 1l-1 1l-1 1h-1l-1 1l-1 1l-1 1l-1 1h-1l-1 1l-1 1l-1 1l-1 1l-1 1h-1l-1 1l-1 1l-1 1l-1 1l-1 1h-1l-1 1l-1 1l-1 1l-1 1l-1 1h-1l-1 1l-1 1l-1 1l-1 1l-1 1h-1l-1 1l-1 1l-1 1l-1 1h-1l-1 1l-1 1l-1 1l-1 1l-1 1h-1v1l-1 1l-1 1
l-1 1l-1 1h-1l-1 1l-1 1l-1 1l-1 1l-1 1h-1l-1 1l-1 1l-1 1l-1 1l-1 1h-1l-1 1l-1 1l-1 1l-1 1l-1 1h-1l-1 1l-1 1l-1 1l-1 1l-1 1h-1l-1 1l-1 1l-1 1l-1 1h-1l-1 1l-1 1l-1 1l-1 1l-1 1h-1l-1 1l-1 1l-1 1l-1 1l-1 1h-1l-1 1l-1 1l-1 1l-1 1l-1 1h-1l-1 1l-1 1l-1 1l-1 1
l-1 1h-1l-1 1l-1 1l-1 1l-1 1l-1 1h-1l-1 1l-1 1l-1 1l-1 1l-1 1h-1l-1 1l-1 1l-1 1l-1 1l-1 1l-1 1h-1l-1 1l-1 1l-1 1l-1 1l-1 1h-1l-1 1l-1 1l-1 1l-1 1l-1 1h-1l-1 1l-1 1v1l-1 1l-1 1h-1l-1 1l-1 1l-1 1l-1 1l-1 1h-1l-1 1l-1 1l-1 1l-1 1l-1 1h-1l-1 1l-1 1l-1 1l-1 1
l-1 1h-1l-1 1l-1 1l-1 1l-1 1l-1 1l-1 1h-1l-1 1l-1 1l-1 1l-1 1l-1 1h-1l-1 1l-1 1l-1 1l-1 1l-1 1h-1l-1 1l-1 1l-1 1l-1 1l-1 1h-1l-1 1l-1 1l-1 1l-1 1l-1 1l-1 1h-1l-1 1z" />
    <glyph glyph-name="uniE616" unicode="&#xe616;" 
d="M238 838l41 42l507 -503l-507 -503l-41 41l465 462l-465 461v0zM238 838z" />
    <glyph glyph-name="uniE617" unicode="&#xe617;" horiz-adv-x="1036" 
d="M110 -116q-46 0 -78.5 32.5t-32.5 78.5v386q0 47 33.5 82.5t77.5 35.5h109q101 0 169 69t68 172v29q0 44 34.5 77t79.5 33h3q35 0 64 -21t40 -54l7 -20q34 -99 9 -200l-4 -15q-2 -19 -14 -45h235q54 0 87 -44q34 -45 19 -99l-119 -414q-10 -37 -40 -60t-67 -23h-680z
M110 442q-21 0 -37.5 -19t-16.5 -42v-386q0 -23 16 -38.5t38 -15.5h680q18 0 33 11.5t20 29.5l118 414q8 27 -9 50q-16 22 -42 22h-320v56h19q6 5 14.5 23.5t9.5 26.5v1v4l5 19q21 84 -7 168l-7 20q-6 16 -20 26.5t-31 10.5h-3q-22 0 -39.5 -16.5t-17.5 -37.5v-29
q0 -127 -84.5 -212.5t-209.5 -85.5h-109zM110 442zM790 -95h-680q-37 0 -63.5 26.5t-26.5 63.5v386q0 38 27 67.5t63 29.5h109q110 0 184 75t74 187v29q0 36 28 62.5t65 26.5h3q28 0 51.5 -17t32.5 -43l8 -21q31 -93 7 -187l-4 -17q0 -11 -9 -33.5t-21 -36.5h272
q43 0 70 -36q28 -37 16 -80l-119 -415q-8 -29 -32.5 -48t-54.5 -19zM110 463q-29 0 -52 -25t-23 -57v-386q0 -31 22 -53t53 -22h680q25 0 45.5 15.5t27.5 40.5l118 415q11 36 -12 68q-23 29 -59 29h-299v15q14 0 28.5 28.5t14.5 42.5v1l4 18q23 90 -7 179l-8 21
q-7 22 -26.5 36.5t-43.5 14.5h-3q-31 0 -54.5 -23t-23.5 -52v-29q0 -118 -78.5 -197.5t-194.5 -79.5h-109zM110 463zM231 -91q-12 0 -20.5 8.5t-8.5 20.5v507q0 12 8.5 20t20 8t20 -8t8.5 -20v-507q0 -12 -8.5 -20.5t-19.5 -8.5zM231 -91zM231 -70q-8 0 -8 8v507q0 7 7.5 7
t7.5 -7v-507q0 -8 -7 -8zM231 -70z" />
    <glyph glyph-name="uniE618" unicode="&#xe618;" 
d="M1009 -69l-282 282q37 45 60 99q32 76 32 159t-32 159q-31 73 -87.5 129.5t-130.5 87.5q-75 33 -158.5 33t-158.5 -33q-74 -31 -130.5 -87.5t-87.5 -129.5q-32 -76 -32 -159t32 -159q31 -73 87.5 -129.5t130.5 -87.5q76 -32 159 -32t158 32q56 23 102 62l281 -282z
M411 98q-102 0 -188 50t-136 136t-50 187.5t50 187.5t136 136t187.5 50t187.5 -50t136 -136t50 -187.5t-50 -187.5t-136 -136t-187 -50zM411 98zM573 406q-39 40 -90 58q37 20 59 56t22 79q0 63 -45 108t-108 45t-107.5 -45t-44.5 -108q0 -43 22 -79t59 -56q-51 -18 -90 -58
q-31 -32 -49 -74q-17 -43 -17 -90h34q0 81 57.5 140t136 59t135.5 -59t57 -140h35q0 47 -18 90q-17 42 -48 74zM293 599q0 49 34.5 83.5t83.5 34.5t84 -34.5t35 -83.5t-35 -83.5t-84 -34.5t-83.5 34.5t-34.5 83.5zM293 599z" />
    <glyph glyph-name="uniE619" unicode="&#xe619;" 
d="M786 -85l-41 -41l-507 503l507 503l41 -42l-465 -461l465 -462v0zM786 -85z" />
    <glyph glyph-name="uniE61A" unicode="&#xe61a;" horiz-adv-x="1039" 
d="M549 -57h-81q-39 0 -70 25q-22 17 -33 44h-252q-46 0 -79 33t-33 79v589q0 46 33 79t79 33h269q47 0 79.5 -33t32.5 -79v-221h36v221q0 46 32.5 79t79.5 33h269q46 0 79 -33t33 -79v-589q0 -46 -33 -79t-79 -33h-258q-12 -27 -34 -44q-31 -25 -70 -25zM113 780
q-27 0 -47 -19.5t-20 -47.5v-589q0 -28 20 -47.5t47 -19.5h286l4 -17q5 -23 23.5 -37.5t41.5 -14.5h81q23 0 41.5 14.5t23.5 37.5l5 18l19 -1h4h269q27 0 47 19.5t20 47.5v589q0 28 -20 47.5t-47 19.5h-269q-28 0 -47.5 -19.5t-19.5 -47.5v-266h-126v266q0 28 -19.5 47.5
t-47.5 19.5h-269z" />
    <glyph glyph-name="uniE61B" unicode="&#xe61b;" horiz-adv-x="1036" 
d="M70 397l32 44l92 22l178 45l115 181l23 147l60 22l87 -60l24 -102l-30 -173l-26 -35l180 15l156 -17l35 -99l-51 -176l-70 -246l-85 -60l-419 4l-261 -4l-71 67l-14 437l73 64l4 -32l71 37v0zM110 -116q-46 0 -78.5 32.5t-32.5 78.5v386q0 47 33.5 82.5t77.5 35.5h109
q101 0 169 69t68 172v29q0 44 34.5 77t79.5 33h3q35 0 64 -21t40 -54l7 -20q34 -99 9 -200l-4 -15q-2 -19 -14 -45h235q54 0 87 -44q34 -45 19 -99l-119 -414q-10 -37 -40 -60t-67 -23h-680zM110 442q-21 0 -37.5 -19t-16.5 -42v-386q0 -23 16 -38.5t38 -15.5h680
q18 0 33 11.5t20 29.5l118 414q8 27 -9 50q-16 22 -42 22h-320v56h19q6 5 14.5 23.5t9.5 26.5v1v4l5 19q21 84 -7 168l-7 20q-6 16 -20 26.5t-31 10.5h-3q-22 0 -39.5 -16.5t-17.5 -37.5v-29q0 -127 -84.5 -212.5t-209.5 -85.5h-109zM110 442zM790 -95h-680
q-37 0 -63.5 26.5t-26.5 63.5v386q0 38 27 67.5t63 29.5h109q110 0 184 75t74 187v29q0 36 28 62.5t65 26.5h3q28 0 51.5 -17t32.5 -43l8 -21q31 -93 7 -187l-4 -17q0 -11 -9 -33.5t-21 -36.5h272q43 0 70 -36q28 -37 16 -80l-119 -415q-8 -29 -32.5 -48t-54.5 -19zM110 463
q-29 0 -52 -25t-23 -57v-386q0 -31 22 -53t53 -22h680q25 0 45.5 15.5t27.5 40.5l118 415q11 36 -12 68q-23 29 -59 29h-299v15q14 0 28.5 28.5t14.5 42.5v1l4 18q23 90 -7 179l-8 21q-7 22 -26.5 36.5t-43.5 14.5h-3q-31 0 -54.5 -23t-23.5 -52v-29q0 -118 -78.5 -197.5
t-194.5 -79.5h-109zM110 463zM231 -91q-12 0 -20.5 8.5t-8.5 20.5v507q0 12 8.5 20t20 8t20 -8t8.5 -20v-507q0 -12 -8.5 -20.5t-19.5 -8.5zM231 -91zM231 -70q-8 0 -8 8v507q0 7 7.5 7t7.5 -7v-507q0 -8 -7 -8zM231 -70z" />
    <glyph glyph-name="uniE61C" unicode="&#xe61c;" 
d="M663 731q0 20 -13.5 33.5t-33.5 13.5h-513q-39 0 -66 -27t-27 -66v-720q0 -38 27 -65t65 -27h720q39 0 66 27t27 65v418q0 20 -13.5 33.5t-32.5 13.5h23q-19 0 -33 -13.5t-14 -33.5v-418q0 -9 -6.5 -16t-16.5 -7h-720q-9 0 -16 7t-7 16v720q0 10 7 16.5t17 6.5h513
q20 0 33.5 13.5t13.5 33.5v-24zM568 443q-10 10 -10 24.5t10 24.5l378 377q10 11 24.5 11t24.5 -10.5t10 -25t-10 -24.5l-378 -378q-10 -10 -24 -10t-25 11zM149 441q0 15 10 25t25 10h279q14 0 24 -10t10 -24.5t-10 -25t-24 -10.5h-279q-15 0 -25 10.5t-10 24.5zM149 186
q0 14 10 24.5t25 10.5h557q15 0 25 -10.5t10 -24.5t-10 -24.5t-25 -10.5h-557q-15 0 -25 10t-10 25zM149 186z" />
    <glyph glyph-name="uniE61D" unicode="&#xe61d;" horiz-adv-x="1029" 
d="M989 828l24 -24l-634 -632l-75 -9l-9 9l9 75l634 632l23 -23l28 -28v0zM809 -121h-627q-75 0 -127.5 53t-52.5 127v628q0 74 52.5 127t127.5 53h421q13 0 22.5 -9.5t9.5 -23t-9.5 -22.5t-22.5 -9h-421q-48 0 -82 -34t-34 -82v-628q0 -48 34 -82t82 -34h627q48 0 82 34
t34 82v414q0 13 9.5 22.5t23 9.5t22.5 -9.5t9 -22.5v-414q0 -74 -52.5 -127t-127.5 -53v0zM809 -121z" />
    <glyph glyph-name="uniE61E" unicode="&#xe61e;" 
d="M505 -126q-102 0 -195 39q-91 39 -160.5 108.5t-107.5 159.5q-39 93 -39 195.5t39 195.5q38 91 107.5 160.5t160.5 107.5q93 40 195.5 40t195.5 -40q90 -38 159.5 -107.5t108.5 -160.5q39 -93 39 -195.5t-39 -195.5q-39 -90 -108.5 -159.5t-159.5 -108.5
q-93 -39 -196 -39zM505 834q-93 0 -177 -36q-82 -35 -145.5 -98t-98.5 -145q-35 -85 -35 -178t35 -178q35 -82 98.5 -145t145.5 -98q84 -36 177 -36t178 36q82 35 145.5 98t97.5 145q36 85 36 178t-36 178q-34 82 -97.5 145t-145.5 98q-85 36 -178 36zM533 111v440l211 -212
l32 31l-271 271l-270 -271l31 -31l212 212v-440h55zM533 111z" />
    <glyph glyph-name="uniE61F" unicode="&#xe61f;" 
d="M870 30l95 -95l-294 -54l54 294l94 -94q78 84 105 193t-3 217.5t-111 189.5q-76 77 -178.5 108t-208.5 11l-14 70q124 24 244 -12.5t208 -125.5q95 -94 129.5 -221.5t3 -255t-123.5 -225.5zM159 633q-62 -83 -79.5 -185.5t13.5 -202.5t106 -175q70 -70 163 -102.5
t192 -20.5l8 -72q-115 -13 -223.5 24.5t-190.5 119.5q-89 89 -125 207.5t-13.5 239.5t98.5 219l-97 97l293 54l-54 -294zM159 633z" />
    <glyph glyph-name="uniE620" unicode="&#xe620;" horiz-adv-x="1036" 
d="M939 797h-102q-9 0 -16 -6.5t-7 -16t7 -16.5t16 -7h102q15 0 25.5 -8t10.5 -19v-760q0 -12 -10.5 -20t-25.5 -8h-854q-15 0 -25.5 8t-10.5 20v546h852q10 0 16.5 6.5t6.5 16t-6.5 16t-16.5 6.5h-852v169q0 11 10.5 19t25.5 8h91q10 0 16.5 7t6.5 16.5t-6.5 16t-16.5 6.5
h-91q-34 0 -57.5 -21.5t-23.5 -51.5v-760q0 -31 23.5 -52t57.5 -21h854q34 0 57.5 21t23.5 52v760q0 30 -23.5 51.5t-57.5 21.5zM393 749h201q10 0 16.5 6.5t6.5 16t-6.5 16t-16.5 6.5h-201q-10 0 -16.5 -6.5t-6.5 -16t6.5 -16t16.5 -6.5zM274.5 680q9.5 0 16 7t6.5 16v151
q0 10 -6.5 16.5t-16 6.5t-16.5 -6.5t-7 -16.5v-151q0 -9 7 -16t16.5 -7zM705.5 680q9.5 0 16.5 7t7 16v151q0 10 -7 16.5t-16.5 6.5t-16 -6.5t-6.5 -16.5v-151q0 -9 6.5 -16t16 -7zM292 412h-101q-9 0 -16 -6.5t-7 -16t7 -16t16 -6.5h101q10 0 16.5 6.5t6.5 16t-6.5 16
t-16.5 6.5zM292 269h-101q-9 0 -16 -7t-7 -16.5t7 -16t16 -6.5h101q10 0 16.5 6.5t6.5 16t-6.5 16.5t-16.5 7zM292 89h-101q-9 0 -16 -7t-7 -16t7 -16t16 -7h101q10 0 16.5 7t6.5 16t-6.5 16t-16.5 7zM549 412h-100q-10 0 -16.5 -6.5t-6.5 -16t6.5 -16t16.5 -6.5h100
q10 0 16.5 6.5t6.5 16t-6.5 16t-16.5 6.5zM549 269h-100q-10 0 -16.5 -7t-6.5 -16.5t6.5 -16t16.5 -6.5h100q10 0 16.5 6.5t6.5 16t-6.5 16.5t-16.5 7zM549 89h-100q-10 0 -16.5 -7t-6.5 -16t6.5 -16t16.5 -7h100q10 0 16.5 7t6.5 16t-6.5 16t-16.5 7zM807 412h-101
q-10 0 -16.5 -6.5t-6.5 -16t6.5 -16t16.5 -6.5h101q9 0 16 6.5t7 16t-7 16t-16 6.5zM807 269h-101q-10 0 -16.5 -7t-6.5 -16.5t6.5 -16t16.5 -6.5h101q9 0 16 6.5t7 16t-7 16.5t-16 7zM807 89h-101q-10 0 -16.5 -7t-6.5 -16t6.5 -16t16.5 -7h101q9 0 16 7t7 16t-7 16t-16 7z
" />
    <glyph glyph-name="uniE621" unicode="&#xe621;" 
d="M505 880q-102 0 -195.5 -40t-161 -107.5t-107 -160.5t-39.5 -195.5t39.5 -195.5t107 -160.5t161 -107.5t195.5 -40t195.5 40t160.5 107.5t107 160.5t40 195.5t-40 195.5t-107 160.5t-160.5 107.5t-195.5 40zM505 -68q-91 0 -173 35t-142 94.5t-95 142t-35 173t35 173
t95 142t142 94.5t172.5 35t173 -35t142 -94.5t95 -142t35.5 -173t-35.5 -173t-95 -142t-142 -94.5t-172.5 -35zM505 -68zM541 578h-66v-218v-66h66h218v66h-218v218zM541 578z" />
  </font>
</defs>
</svg>
